<svg xmlns="http://www.w3.org/2000/svg" viewBox="0 0 792 312.2" role="img" aria-label="Bond No. 9 New York"><g fill="#C5A55A"><path d="M308.96,257.76h.08v-12.6c0-.48-.22-.84-1.02-.84v-.43h5.06v.43c-.79,0-1,.37-1,.84v16.02c0,.49.2.83,1,.83v.44h-5.38v-.44c.55,0,.85-.07.85-.28,0-.3-.3-.53-.45-.68l-15.05-14.25v14.38c0,.49.22.83,1,.83v.44h-5.08v-.44c.83,0,1.06-.35,1.06-.83v-16.02c0-.48-.22-.84-1.06-.84v-.43h7.19v.43c-.65,0-.83.1-.83.39,0,.14.18.33.35.46l13.28,12.6Z"/><path d="M328.99,245.15c0-.48-.18-.84-1-.84v-.43h17.73c1.4,0,1.69-.16,1.69-.68h.51v4.01h-.51c0-.62-.39-1-1.67-1h-13.18v5.57h8.59c1,0,1.71-.24,1.71-1h.51v4.26h-.51c0-.68-.45-.94-1.65-.94h-8.65v6.01h14.12c1.18,0,1.73-.35,1.73-1.21h.51v4.3h-.51c0-.57-.41-.76-1.46-.76h-18.95v-.44c.81,0,1-.35,1-.83v-16.02Z"/><path d="M365.27,262.44v-.44c.71,0,.81-.1.81-.39,0-.33-.2-.79-.35-1.1l-6.76-15.01c-.33-.81-.65-1.2-1.42-1.2v-.43h5.57v.43c-.75,0-.95.22-.95.53,0,.28.26.65.47,1.11l5.71,12.75h.08l5.67-13.43c.08-.2.14-.39.14-.53,0-.32-.22-.43-.65-.43v-.43h5.89v.43c-.51,0-.79.1-.79.47,0,.24.24.6.39,1l5.5,12.49h.08l5.63-12.67c.12-.33.28-.51.28-.77,0-.28-.39-.51-.95-.51v-.43h5.32v.43c-.71,0-.95.28-1.4,1.2l-6.6,14.94c-.28.59-.49.86-.49,1.23,0,.25.2.33.83.33v.44h-5.59v-.44c.71,0,.85-.13.85-.35,0-.35-.3-.83-.47-1.21l-5.67-12.82h-.08l-5.67,13.18c-.12.27-.26.5-.26.84,0,.21.32.35.87.35v.44h-5.99Z"/><path d="M426.51,262.44v-.44c.81,0,1.02-.35,1.02-.83v-6.42l-8.17-9.24c-.73-.83-1.12-1.2-1.81-1.2v-.43h6.38v.43c-.67.04-1.04.22-1.04.51,0,.24.43.51.71.91l5.83,6.62,6.17-6.85c.22-.24.59-.55.59-.77,0-.25-.28-.43-.93-.43v-.43h6.09v.43c-.79,0-1.14.39-1.91,1.2l-8.37,9.24v6.42c0,.49.22.83,1.04.83v.44h-5.61Z"/><path d="M473.53,253.17c0,6.09-5.4,9.47-12.72,9.47s-12.76-3.37-12.76-9.47,5.44-9.49,12.76-9.49,12.72,3.37,12.72,9.49ZM451.82,253.17c0,4.39,3.33,7.09,9,7.09s9-2.7,9-7.09-3.33-7.09-9-7.09-9,2.68-9,7.09Z"/><path d="M489.27,261.17c0,.49.22.83,1.04.83v.44h-5.61v-.44c.81,0,1.02-.35,1.02-.83v-16.02c0-.48-.2-.84-1.02-.84v-.43h14.18c5.59,0,7.82,1.82,7.82,5.16,0,2.86-1.79,4.73-5.97,5.17l5.32,6.88c.59.73.81.91,1.65.91v.44h-6.07v-.44c.71,0,.85-.1.85-.33,0-.08-.14-.26-.2-.39l-5.22-6.89h-7.78v6.76ZM489.27,251.99h9.24c3.43,0,4.71-1.16,4.71-3.03s-.95-2.68-4.92-2.68h-9.04v5.71Z"/><path d="M526.53,243.89v.43c-.81,0-1.02.37-1.02.84v7.2l11.52-7.2c.39-.21.59-.34.59-.52,0-.15-.16-.33-.65-.33v-.43h6.34v.43c-.83,0-1.06.22-2.09.84l-8.12,5.07,10.2,10.95c.51.59.75.83,1.38.83v.44h-5.83v-.44c.43,0,.55-.07.55-.28,0-.23-.2-.53-.55-.89l-8.33-8.96-5,3.09v6.22c0,.49.2.83,1.02.83v.44h-5.59v-.44c.81,0,1.02-.35,1.02-.83v-16.02c0-.48-.2-.84-1.02-.84v-.43h5.59Z"/></g><g fill="currentColor"><path d="M303.02,175.2c-1.79,4.67-4.93,8.71-9.38,14.23-2.58-3.39-2.93-8.43-1.65-13.1,1.58-5.05,3.57-8.73,6.57-11.09,5.44-4.28,6.06.38,6.16,1.29.29,2.73-.59,5.84-1.7,8.66ZM277.78,167.38l-.21.07c-13.04,4.09-19.63,10.77-25.51,19.54-14.11,21.04,7.79,42.4,44.54,8.99l1.2-1.05c3.64-3.63,7.63-8.67,11.33-14.14,12.02-17.77-.89-29.46-13.32-18.2-13.76,12.46-10.13,26.79-5.4,30.91-3.64,4.3-13,11.84-19.95,13.87-7.99,2.33-13-2.09-7.8-12.28,4.32-8.46,16.03-23.94,25.27-26.38l-10.13-1.33Z"/><path d="M615.03,201.97c5.12,4.55,13.82-5.97,8.56-10.29-5.67-4.66-13.77,5.66-8.56,10.29Z"/><path d="M605.24,169.59c12.3.7,2.75,18.66-5.84,24.88-22.18,16.03-10.89-21.17,6.12-21.01-4.39-8.21-26.37,2-27.73,17.3-1.82,20.46,20.85,14.97,34.21-.55,15.34-17.81,2.43-31.13-6.75-20.62Z"/><path d="M287.91,168.72c-.21-.12-3.12-2.85-16.53-2.85s-31.61,2.91-52.32,8.65c-2.8-6.74-7.57-15.43-15.83-21.93,17.41-4.63,34.93-10.24,48.91-23.23,31.74-29.49,4.34-79.31-53.99-49.05-56.08,29.09-95.92,116.38-100.32,130.58l-.18.59.32,1.21s20.02.43,22.64.36c14.62-40.7,36.61-80.29,59.35-105.98,52.96-59.82,94.02-20.07,56.81,16.2-9.03,8.81-22.21,19.72-38.85,26.18-3.45-1.41-6.92-2.61-13.39-3.82-18.54-3.46-21.03,10.07-3.32,9.99,4.71-.02,10.78-.65,13.24-.98,1.85,1.28,10.19,9.66,10.86,24.13-13.4,4.3-59.45,19.93-91.45,50.17-38.01,35.92-3.8,76.46,63.85,34.77,28.81-17.75,50.49-53.56,42.77-84.69,23.19-6.91,43.25-8.6,53.92-8.94,9.57-.3,13.52-1.38,13.52-1.38ZM205.38,183.66c.05,3.63-1.18,43.02-50.32,76.81-53.12,36.52-70.87-5.86-22.17-40,17.9-12.55,39.02-24.19,72.49-36.8ZM175.7,151.64c-2.29-.54-3.73-2.93,1.4-3.14,4.77-.19,9.85,1.12,13.04,3.14-5.32,1.54-11.99.57-14.44,0Z"/><path d="M506.34,148c26.67.89,38.72,8.4,14.78,39.39-12.5,16.17-1.21,18.41,10.95,7.43,8.67-7.83,19.57-18.22,27.25-21.57-21.45,24.01-9.92,43.72,20.59,19.37l1.82-6.11c-3.34,3.13-8.77,6.74-14.19,9.71-7.37,4.04-10.7-.61-3.1-10.43,12.02-15.51,4.81-32.17-29.64-.52,22.81-35.17-2.8-41.8-26.39-41.89l-2.06,4.63Z"/><path d="M644.93,141.52c-4.18,6.46-6.3,14.09-6.72,21.8-1.13,20.67,22.52,29.1,32.91,5.14.37-.84.69-2.41-.48-2.8s-2.19,1.1-2.53,1.87c-6,13.49-26.32,18.74-19.38-5.7,3.33-11.73,6.28-17.11,12.13-25.44,13.03-18.57,25.72-11.52,23.46,3.4-6.78,44.84-51.36,92.02-70.14,92.99-6.35.33-2.67,3.89,6.34,1.96,18.9-4.06,46.32-28.19,60.52-51.64,35.14-58.01-9.25-83.07-36.09-41.58Z"/><path d="M476.3,49.52c-58.04-16.98-100.42,48.88-56.06,83.19,14.52,11.24,38.49,18.03,73.27,15.65-10.07,17.61-33.48,41.83-51.49,55.86-14.6,11.38-21.79,3.3-3.09-18.47,9.41-10.96,23.17-15.81,26.91-13.61.65.39,1.19.63,1.67.3.2-.14.23-.21.3-.6.3-1.79-4.17-6.98-17.29-4.87-15.01,2.41-29.3,13.76-33.55,29.62-3.6,2.22-11.66,6.51-22.06,10.18-5.52,1.94-12.93,1.9-5.62-8.02,7.31-9.92,12.56-14.5,14.44-18.71,4.41-9.89-3.28-16.07-15.52-11.09-12.24,4.98-36.28,25.55-37.51,26.56,23.89-27.95,8.78-39.69-18.85-18.22-24.04,18.69-32.77,16.03-36.96,13.24-.21,1.39-1.02,3.64-1.96,4.75,10.58,5.21,26.16-3.01,41.27-14.15,21.32-15.72,16.75-7.53,14.27-4.69-6.96,7.98-14.76,18.12-17.52,22.04-10.87,15.45-2.19,19.8,10.15,10.47,6.01-4.54,31.33-25.09,47.48-35.5,2.51-1.62,2.71-.34,2.13.56-2.77,4.27-6.64,8.43-14.41,18.24-11.75,14.84-4.39,36.02,40.09,10.03,4.02,28.28,50.17,12.16,91.12-54.3l2.04-4.15c22.53-52.67-1.88-85.17-33.23-94.34ZM496.4,143.26c-25.72,1.11-50.16-5.79-66.8-16.66-50.69-33.1,2.65-93.32,51.76-70.37,23.73,11.09,38.52,41.12,15.04,87.03Z"/></g></svg>
