<svg xmlns="http://www.w3.org/2000/svg" viewBox="0 0 280 140">
<path d="M71.30799999999999 104.84V84.664H85.34799999999998C101.57199999999999 84.664 113.636 77.28 113.636 60.120000000000005C113.636 42.544000000000004 101.36399999999999 35.16000000000001 85.34799999999998 35.16000000000001H56.43599999999999V104.84ZM84.82799999999999 48.36800000000001C92.524 48.36800000000001 98.036 51.38400000000001 98.036 60.120000000000005C98.036 68.33600000000001 92.524 71.456 84.82799999999999 71.456H71.30799999999999V48.36800000000001Z" fill="#1A1A1A"/>
<rect x="128.40" y="58.56" width="22.88" height="22.88" fill="#2D9B9B"/>
<path d="M199.54000000000002 105.88000000000001C214.62 105.88000000000001 225.852 98.70400000000001 225.852 85.392C225.852 72.912 217.012 67.608 204.012 64.59200000000001L196.108 62.720000000000006C188.828 61.056000000000004 184.356 59.184000000000005 184.356 54.08800000000001C184.356 50.032000000000004 188.204 47.74400000000001 193.508 47.74400000000001C201.51600000000002 47.74400000000001 209.62800000000001 51.696000000000005 214.204 58.976000000000006L224.292 47.64000000000001C218.46800000000002 39.32000000000001 207.964 34.328 194.86 34.328C180.716 34.328 168.964 41.504000000000005 168.964 55.12800000000001C168.964 68.33600000000001 179.156 73.12 189.972 75.304L196.732 76.76C205.988 78.632 210.56400000000002 80.4 210.56400000000002 85.808C210.56400000000002 90.592 206.196 92.464 200.16400000000002 92.464C191.844 92.464 181.756 88.616 177.07600000000002 79.88000000000001L167.3 91.32000000000001C173.74800000000002 101.512 186.12400000000002 105.88000000000001 199.54000000000002 105.88000000000001Z" fill="#1A1A1A"/>
</svg>
