<svg xmlns="http://www.w3.org/2000/svg" viewBox="0 0 560 760">
<circle cx="280" cy="280" r="268" fill="none" stroke="#FAFAF8" stroke-width="5"/>
<circle cx="280" cy="280" r="244" fill="none" stroke="#FAFAF8" stroke-width="2"/>
<path d="M162.148 341.64V305.94399999999996H186.988C215.692 305.94399999999996 237.036 292.88 237.036 262.52C237.036 231.42399999999998 215.324 218.35999999999999 186.988 218.35999999999999H135.836V341.64ZM186.068 241.728C199.684 241.728 209.436 247.064 209.436 262.52C209.436 277.056 199.684 282.57599999999996 186.068 282.57599999999996H162.148V241.728Z" fill="#FAFAF8"/>
<rect x="264.54" y="264.82" width="30.36" height="30.36" fill="#2D9B9B"/>
<path d="M381.66 343.47999999999996C408.34000000000003 343.47999999999996 428.21200000000005 330.784 428.21200000000005 307.23199999999997C428.21200000000005 285.152 412.572 275.768 389.572 270.432L375.588 267.12C362.708 264.176 354.79600000000005 260.864 354.79600000000005 251.84799999999998C354.79600000000005 244.67199999999997 361.60400000000004 240.62399999999997 370.98800000000006 240.62399999999997C385.15600000000006 240.62399999999997 399.50800000000004 247.61599999999999 407.60400000000004 260.496L425.452 240.44C415.148 225.71999999999997 396.564 216.88799999999998 373.38000000000005 216.88799999999998C348.35600000000005 216.88799999999998 327.564 229.584 327.564 253.688C327.564 277.056 345.596 285.52 364.732 289.384L376.692 291.96C393.06800000000004 295.272 401.16400000000004 298.4 401.16400000000004 307.96799999999996C401.16400000000004 316.432 393.43600000000004 319.74399999999997 382.764 319.74399999999997C368.04400000000004 319.74399999999997 350.196 312.936 341.91600000000005 297.48L324.62 317.71999999999997C336.028 335.752 357.92400000000004 343.47999999999996 381.66 343.47999999999996Z" fill="#FAFAF8"/>
<path d="M57.462999999999994 678.172C64.81299999999999 678.172 69.39099999999999 674.434 69.39099999999999 667.882C69.39099999999999 661.33 64.81299999999999 657.844 57.462999999999994 657.844H46.33299999999999V688.0H52.717V678.172ZM57.42099999999999 663.22C61.032999999999994 663.22 63.04899999999999 664.942 63.04899999999999 667.924C63.04899999999999 670.906 61.032999999999994 672.796 57.42099999999999 672.796H52.717V663.22Z" fill="#FAFAF8"/>
<path d="M104.377 688.0H111.223L99.967 657.844H92.99499999999999L81.655 688.0H88.08099999999999L90.39099999999999 681.532H102.109ZM96.31299999999999 664.816 100.345 676.45H92.197Z" fill="#FAFAF8"/>
<path d="M150.11499999999998 657.844H143.731V676.66C143.731 680.398 141.92499999999998 682.918 137.725 682.918C133.483 682.918 131.677 680.398 131.677 676.66V657.844H125.29299999999999V676.534C125.29299999999999 683.674 129.745 688.63 137.725 688.63C145.579 688.63 150.11499999999998 683.674 150.11499999999998 676.534Z" fill="#FAFAF8"/>
<path d="M186.19299999999998 688.0V682.246H173.08899999999997V657.844H166.70499999999998V688.0Z" fill="#FAFAF8"/>
<path d="M243.48099999999997 678.634C243.48099999999997 674.182 240.62499999999997 671.746 235.33299999999997 670.696L230.16699999999997 669.646C227.98299999999998 669.226 226.09299999999996 668.344 226.09299999999996 666.286C226.09299999999996 664.186 227.85699999999997 662.422 230.96499999999997 662.422C234.15699999999998 662.422 236.34099999999995 664.564 236.55099999999996 667.7139999999999H243.01899999999998C242.59899999999996 661.414 237.64299999999997 657.466 230.88099999999997 657.466C224.37099999999998 657.466 219.62499999999997 661.33 219.62499999999997 666.706C219.62499999999997 671.704 223.15299999999996 674.182 227.73099999999997 675.064L232.68699999999995 676.03C235.24899999999997 676.534 236.71899999999997 677.668 236.71899999999997 679.558C236.71899999999997 681.994 234.40899999999996 683.422 231.17499999999995 683.422C227.26899999999998 683.422 225.12699999999995 681.28 224.95899999999997 677.962H218.49099999999996C218.95299999999997 684.346 223.69899999999996 688.42 231.30099999999996 688.42C238.86099999999996 688.42 243.48099999999997 684.388 243.48099999999997 678.634Z" fill="#FAFAF8"/>
<path d="M265.06899999999996 688.0V674.224L275.82099999999997 688.0H283.67499999999995L271.36899999999997 672.292L283.33899999999994 657.844H276.03099999999995L265.06899999999996 671.116V657.844H258.68499999999995V688.0Z" fill="#FAFAF8"/>
<path d="M304.12899999999996 688.0V657.844H297.74499999999995V688.0Z" fill="#FAFAF8"/>
<path d="M331.5129999999999 688.0C340.87899999999996 688.0 346.88499999999993 681.532 346.88499999999993 672.754C346.88499999999993 663.976 341.08899999999994 657.844 331.5129999999999 657.844H320.80299999999994V688.0ZM327.18699999999995 663.346H331.17699999999996C337.18299999999994 663.346 340.3329999999999 666.748 340.3329999999999 672.754C340.3329999999999 679.012 337.18299999999994 682.498 331.17699999999996 682.498H327.18699999999995Z" fill="#FAFAF8"/>
<path d="M375.52899999999994 688.0H380.86299999999994L388.8429999999999 667.798V688.0H394.63899999999995V657.844H386.99499999999995L378.2169999999999 680.188L369.48099999999994 657.844H361.83699999999993V688.0H367.6329999999999V667.966Z" fill="#FAFAF8"/>
<path d="M424.9629999999999 688.63C433.69899999999996 688.63 440.4609999999999 681.91 440.4609999999999 672.88C440.4609999999999 663.85 433.69899999999996 657.2139999999999 424.9629999999999 657.2139999999999C416.26899999999995 657.2139999999999 409.5489999999999 663.85 409.5489999999999 672.88C409.5489999999999 681.91 416.26899999999995 688.63 424.9629999999999 688.63ZM424.9629999999999 682.918C419.4609999999999 682.918 416.10099999999994 678.424 416.10099999999994 672.88C416.10099999999994 667.336 419.4609999999999 662.926 424.9629999999999 662.926C430.50699999999995 662.926 433.8669999999999 667.336 433.8669999999999 672.88C433.8669999999999 678.424 430.50699999999995 682.918 424.9629999999999 682.918Z" fill="#FAFAF8"/>
<path d="M461.75499999999994 688.0V677.332H465.74499999999995L472.5489999999999 688.0H480.1509999999999L472.3809999999999 676.366C476.6649999999999 674.938 479.18499999999995 671.704 479.18499999999995 667.63C479.18499999999995 661.372 474.7749999999999 657.844 467.17299999999994 657.844H455.3709999999999V688.0ZM461.75499999999994 663.136H466.8789999999999C470.74299999999994 663.136 472.80099999999993 664.648 472.80099999999993 667.63C472.80099999999993 670.57 470.74299999999994 672.082 466.8789999999999 672.082H461.75499999999994Z" fill="#FAFAF8"/>
<path d="M514.9269999999999 682.456H501.0249999999999V675.232H513.3729999999999V669.73H501.0249999999999V663.388H514.6329999999999V657.844H494.6409999999999V688.0H514.9269999999999Z" fill="#FAFAF8"/>
</svg>
