<svg xmlns="http://www.w3.org/2000/svg" viewBox="0 0 1472 560">
<circle cx="280" cy="280" r="268" fill="none" stroke="#1A1A1A" stroke-width="5"/>
<circle cx="280" cy="280" r="244" fill="none" stroke="#1A1A1A" stroke-width="2"/>
<path d="M162.148 341.64V305.94399999999996H186.988C215.692 305.94399999999996 237.036 292.88 237.036 262.52C237.036 231.42399999999998 215.324 218.35999999999999 186.988 218.35999999999999H135.836V341.64ZM186.068 241.728C199.684 241.728 209.436 247.064 209.436 262.52C209.436 277.056 199.684 282.57599999999996 186.068 282.57599999999996H162.148V241.728Z" fill="#1A1A1A"/>
<rect x="264.54" y="264.82" width="30.36" height="30.36" fill="#2D9B9B"/>
<path d="M381.66 343.47999999999996C408.34000000000003 343.47999999999996 428.21200000000005 330.784 428.21200000000005 307.23199999999997C428.21200000000005 285.152 412.572 275.768 389.572 270.432L375.588 267.12C362.708 264.176 354.79600000000005 260.864 354.79600000000005 251.84799999999998C354.79600000000005 244.67199999999997 361.60400000000004 240.62399999999997 370.98800000000006 240.62399999999997C385.15600000000006 240.62399999999997 399.50800000000004 247.61599999999999 407.60400000000004 260.496L425.452 240.44C415.148 225.71999999999997 396.564 216.88799999999998 373.38000000000005 216.88799999999998C348.35600000000005 216.88799999999998 327.564 229.584 327.564 253.688C327.564 277.056 345.596 285.52 364.732 289.384L376.692 291.96C393.06800000000004 295.272 401.16400000000004 298.4 401.16400000000004 307.96799999999996C401.16400000000004 316.432 393.43600000000004 319.74399999999997 382.764 319.74399999999997C368.04400000000004 319.74399999999997 350.196 312.936 341.91600000000005 297.48L324.62 317.71999999999997C336.028 335.752 357.92400000000004 343.47999999999996 381.66 343.47999999999996Z" fill="#1A1A1A"/>
<path d="M665.086 289.25C678.0360000000001 289.25 686.102 282.664 686.102 271.12C686.102 259.57599999999996 678.0360000000001 253.43399999999997 665.086 253.43399999999997H645.476V306.566H656.724V289.25ZM665.012 262.90599999999995C671.376 262.90599999999995 674.928 265.94 674.928 271.19399999999996C674.928 276.448 671.376 279.77799999999996 665.012 279.77799999999996H656.724V262.90599999999995Z" fill="#1A1A1A"/>
<path d="M742.564 306.566H754.626L734.794 253.43399999999997H722.51L702.53 306.566H713.852L717.922 295.16999999999996H738.568ZM728.356 265.71799999999996 735.46 286.21599999999995H721.1039999999999Z" fill="#1A1A1A"/>
<path d="M817.97 253.43399999999997H806.722V286.58599999999996C806.722 293.17199999999997 803.54 297.61199999999997 796.14 297.61199999999997C788.666 297.61199999999997 785.484 293.17199999999997 785.484 286.58599999999996V253.43399999999997H774.236V286.364C774.236 298.94399999999996 782.08 307.676 796.14 307.676C809.9780000000001 307.676 817.97 298.94399999999996 817.97 286.364Z" fill="#1A1A1A"/>
<path d="M876.356 306.566V296.428H853.268V253.43399999999997H842.02V306.566Z" fill="#1A1A1A"/>
<path d="M966.932 290.06399999999996C966.932 282.21999999999997 961.9 277.928 952.576 276.078L943.474 274.22799999999995C939.626 273.488 936.296 271.93399999999997 936.296 268.308C936.296 264.60799999999995 939.404 261.5 944.88 261.5C950.504 261.5 954.352 265.274 954.722 270.82399999999996H966.118C965.378 259.724 956.646 252.76799999999997 944.732 252.76799999999997C933.2620000000001 252.76799999999997 924.9 259.57599999999996 924.9 269.048C924.9 277.854 931.116 282.21999999999997 939.182 283.774L947.914 285.476C952.428 286.364 955.018 288.36199999999997 955.018 291.69199999999995C955.018 295.984 950.948 298.5 945.25 298.5C938.368 298.5 934.594 294.726 934.298 288.88H922.902C923.716 300.128 932.078 307.306 945.472 307.306C958.792 307.306 966.932 300.202 966.932 290.06399999999996Z" fill="#1A1A1A"/>
<path d="M999.788 306.566V282.294L1018.732 306.566H1032.57L1010.8879999999999 278.89L1031.978 253.43399999999997H1019.102L999.788 276.818V253.43399999999997H988.54V306.566Z" fill="#1A1A1A"/>
<path d="M1063.4279999999999 306.566V253.43399999999997H1052.18V306.566Z" fill="#1A1A1A"/>
<path d="M1106.4959999999999 306.566C1122.9979999999998 306.566 1133.58 295.16999999999996 1133.58 279.70399999999995C1133.58 264.238 1123.368 253.43399999999997 1106.4959999999999 253.43399999999997H1087.626V306.566ZM1098.8739999999998 263.128H1105.9039999999998C1116.4859999999999 263.128 1122.0359999999998 269.12199999999996 1122.0359999999998 279.70399999999995C1122.0359999999998 290.72999999999996 1116.4859999999999 296.87199999999996 1105.9039999999998 296.87199999999996H1098.8739999999998Z" fill="#1A1A1A"/>
<path d="M1178.8679999999997 306.566H1188.2659999999998L1202.3259999999998 270.972V306.566H1212.5379999999998V253.43399999999997H1199.0699999999997L1183.6039999999998 292.80199999999996L1168.2119999999998 253.43399999999997H1154.744V306.566H1164.956V271.268Z" fill="#1A1A1A"/>
<path d="M1260.7859999999998 307.676C1276.1779999999997 307.676 1288.0919999999996 295.83599999999996 1288.0919999999996 279.926C1288.0919999999996 264.01599999999996 1276.1779999999997 252.32399999999998 1260.7859999999998 252.32399999999998C1245.4679999999998 252.32399999999998 1233.6279999999997 264.01599999999996 1233.6279999999997 279.926C1233.6279999999997 295.83599999999996 1245.4679999999998 307.676 1260.7859999999998 307.676ZM1260.7859999999998 297.61199999999997C1251.0919999999999 297.61199999999997 1245.1719999999998 289.69399999999996 1245.1719999999998 279.926C1245.1719999999998 270.15799999999996 1251.0919999999999 262.388 1260.7859999999998 262.388C1270.5539999999999 262.388 1276.4739999999997 270.15799999999996 1276.4739999999997 279.926C1276.4739999999997 289.69399999999996 1270.5539999999999 297.61199999999997 1260.7859999999998 297.61199999999997Z" fill="#1A1A1A"/>
<path d="M1320.4299999999996 306.566V287.77H1327.4599999999996L1339.4479999999996 306.566H1352.8419999999996L1339.1519999999996 286.068C1346.6999999999996 283.55199999999996 1351.1399999999996 277.854 1351.1399999999996 270.676C1351.1399999999996 259.65 1343.3699999999997 253.43399999999997 1329.9759999999997 253.43399999999997H1309.1819999999998V306.566ZM1320.4299999999996 262.758H1329.4579999999996C1336.2659999999996 262.758 1339.8919999999996 265.42199999999997 1339.8919999999996 270.676C1339.8919999999996 275.856 1336.2659999999996 278.52 1329.4579999999996 278.52H1320.4299999999996Z" fill="#1A1A1A"/>
<path d="M1408.9339999999997 296.798H1384.4399999999996V284.07H1406.1959999999997V274.376H1384.4399999999996V263.202H1408.4159999999997V253.43399999999997H1373.1919999999998V306.566H1408.9339999999997Z" fill="#1A1A1A"/>
</svg>
