<svg xmlns="http://www.w3.org/2000/svg" viewBox="0 0 560 280">
<path d="M151.9 207.0V168.2H178.9C210.10000000000002 168.2 233.3 154.0 233.3 121.0C233.3 87.19999999999999 209.7 73.0 178.9 73.0H123.3V207.0ZM177.9 98.39999999999999C192.7 98.39999999999999 203.3 104.19999999999999 203.3 121.0C203.3 136.8 192.7 142.8 177.9 142.8H151.9V98.39999999999999Z" fill="#1A1A1A"/>
<rect x="263.20" y="123.50" width="33.00" height="33.00" fill="#2D9B9B"/>
<path d="M390.5 209.0C419.5 209.0 441.1 195.2 441.1 169.6C441.1 145.6 424.1 135.39999999999998 399.1 129.6L383.9 126.0C369.9 122.8 361.3 119.19999999999999 361.3 109.39999999999999C361.3 101.6 368.7 97.19999999999999 378.9 97.19999999999999C394.3 97.19999999999999 409.9 104.8 418.7 118.8L438.1 97.0C426.9 81.0 406.7 71.4 381.5 71.4C354.3 71.4 331.7 85.19999999999999 331.7 111.39999999999999C331.7 136.8 351.3 146.0 372.1 150.2L385.1 153.0C402.9 156.6 411.7 160.0 411.7 170.4C411.7 179.6 403.3 183.2 391.7 183.2C375.7 183.2 356.3 175.8 347.3 159.0L328.5 181.0C340.9 200.6 364.7 209.0 390.5 209.0Z" fill="#1A1A1A"/>
</svg>
