<svg xmlns="http://www.w3.org/2000/svg" viewBox="0 0 560 560">
<circle cx="280" cy="280" r="268" fill="none" stroke="#1A1A1A" stroke-width="5"/>
<circle cx="280" cy="280" r="244" fill="none" stroke="#1A1A1A" stroke-width="2"/>
<path d="M162.148 341.64V305.94399999999996H186.988C215.692 305.94399999999996 237.036 292.88 237.036 262.52C237.036 231.42399999999998 215.324 218.35999999999999 186.988 218.35999999999999H135.836V341.64ZM186.068 241.728C199.684 241.728 209.436 247.064 209.436 262.52C209.436 277.056 199.684 282.57599999999996 186.068 282.57599999999996H162.148V241.728Z" fill="#1A1A1A"/>
<rect x="264.54" y="264.82" width="30.36" height="30.36" fill="#2D9B9B"/>
<path d="M381.66 343.47999999999996C408.34000000000003 343.47999999999996 428.21200000000005 330.784 428.21200000000005 307.23199999999997C428.21200000000005 285.152 412.572 275.768 389.572 270.432L375.588 267.12C362.708 264.176 354.79600000000005 260.864 354.79600000000005 251.84799999999998C354.79600000000005 244.67199999999997 361.60400000000004 240.62399999999997 370.98800000000006 240.62399999999997C385.15600000000006 240.62399999999997 399.50800000000004 247.61599999999999 407.60400000000004 260.496L425.452 240.44C415.148 225.71999999999997 396.564 216.88799999999998 373.38000000000005 216.88799999999998C348.35600000000005 216.88799999999998 327.564 229.584 327.564 253.688C327.564 277.056 345.596 285.52 364.732 289.384L376.692 291.96C393.06800000000004 295.272 401.16400000000004 298.4 401.16400000000004 307.96799999999996C401.16400000000004 316.432 393.43600000000004 319.74399999999997 382.764 319.74399999999997C368.04400000000004 319.74399999999997 350.196 312.936 341.91600000000005 297.48L324.62 317.71999999999997C336.028 335.752 357.92400000000004 343.47999999999996 381.66 343.47999999999996Z" fill="#1A1A1A"/>
</svg>
